<?xml version="1.0" encoding="UTF-8" standalone="no"?>
<!-- Created with Inkscape (http://www.inkscape.org/) -->

<svg
   xmlns:dc="http://purl.org/dc/elements/1.1/"
   xmlns:cc="http://creativecommons.org/ns#"
   xmlns:rdf="http://www.w3.org/1999/02/22-rdf-syntax-ns#"
   xmlns:svg="http://www.w3.org/2000/svg"
   xmlns="http://www.w3.org/2000/svg"
   xmlns:sodipodi="http://sodipodi.sourceforge.net/DTD/sodipodi-0.dtd"
   xmlns:inkscape="http://www.inkscape.org/namespaces/inkscape"
   width="16"
   height="16"
   viewBox="0 0 4.2333332 4.2333335"
   version="1.1"
   id="svg8"
   inkscape:version="0.92.4 (5da689c313, 2019-01-14)"
   sodipodi:docname="temperature2.svg">
  <defs
     id="defs2" />
  <sodipodi:namedview
     id="base"
     pagecolor="#ffffff"
     bordercolor="#666666"
     borderopacity="1.0"
     inkscape:pageopacity="0.0"
     inkscape:pageshadow="2"
     inkscape:zoom="31.678384"
     inkscape:cx="8.6874018"
     inkscape:cy="7.9517239"
     inkscape:document-units="px"
     inkscape:current-layer="layer1"
     showgrid="false"
     units="px"
     inkscape:window-width="1366"
     inkscape:window-height="700"
     inkscape:window-x="0"
     inkscape:window-y="34"
     inkscape:window-maximized="1" />
  <metadata
     id="metadata5">
    <rdf:RDF>
      <cc:Work
         rdf:about="">
        <dc:format>image/svg+xml</dc:format>
        <dc:type
           rdf:resource="http://purl.org/dc/dcmitype/StillImage" />
        <dc:title></dc:title>
      </cc:Work>
    </rdf:RDF>
  </metadata>
  <g
     inkscape:label="Layer 1"
     inkscape:groupmode="layer"
     id="layer1"
     transform="translate(0,-292.76665)">
    <path
       style="fill:#525761;fill-opacity:1;stroke:none;stroke-width:1.30199993;stroke-miterlimit:4;stroke-dasharray:none;stroke-opacity:1"
       d="M 8 1.2265625 A 2.3833285 2.3833285 0 0 0 5.6171875 3.609375 A 2.3833285 2.3833285 0 0 0 5.6171875 3.6269531 L 5.6171875 9.546875 A 3.4250483 3.4250483 0 0 0 4.5742188 12.005859 A 3.4250483 3.4250483 0 0 0 8 15.431641 A 3.4250483 3.4250483 0 0 0 11.425781 12.005859 A 3.4250483 3.4250483 0 0 0 10.382812 9.5507812 L 10.382812 3.6269531 A 2.3833285 2.3833285 0 0 0 10.382812 3.609375 A 2.3833285 2.3833285 0 0 0 8 1.2265625 z M 8 2.2363281 A 1.7046324 1.7046324 0 0 1 9.7050781 3.9414062 A 1.7046324 1.7046324 0 0 1 9.7050781 3.9570312 L 9.7050781 10.201172 A 2.5095976 2.5095976 0 0 1 10.509766 12.039062 A 2.5095976 2.5095976 0 0 1 8 14.548828 A 2.5095976 2.5095976 0 0 1 5.4902344 12.039062 A 2.5095976 2.5095976 0 0 1 6.2949219 10.201172 L 6.2949219 3.9570312 A 1.7046324 1.7046324 0 0 1 6.2949219 3.9414062 A 1.7046324 1.7046324 0 0 1 8 2.2363281 z "
       transform="matrix(0.26458333,0,0,0.26458333,0,292.76665)"
       id="path10" />
    <path
       style="fill:#525761;fill-opacity:1;stroke:none;stroke-width:1.32941175;stroke-miterlimit:4;stroke-dasharray:none;stroke-opacity:1"
       d="M 7.2519531 6.1191406 C 7.2433774 6.1191406 7.2363281 6.1261899 7.2363281 6.1347656 L 7.2363281 10.507812 A 1.7835505 1.7835505 0 0 0 6.2167969 12.117188 A 1.7835505 1.7835505 0 0 0 8 13.900391 A 1.7835505 1.7835505 0 0 0 9.7832031 12.117188 A 1.7835505 1.7835505 0 0 0 8.7636719 10.507812 L 8.7636719 6.1347656 C 8.7636719 6.1261899 8.7566226 6.1191406 8.7480469 6.1191406 L 7.2519531 6.1191406 z "
       transform="matrix(0.26458333,0,0,0.26458333,0,292.76665)"
       id="path847" />
    <rect
       style="fill:#525761;fill-opacity:1;stroke:none;stroke-width:0.24350788;stroke-miterlimit:4;stroke-dasharray:none;stroke-opacity:1"
       id="rect852"
       width="0.74334335"
       height="0.38419995"
       x="2.764569"
       y="293.58395"
       ry="0.17547084" />
    <rect
       style="fill:#525761;fill-opacity:1;stroke:none;stroke-width:0.24350788;stroke-miterlimit:4;stroke-dasharray:none;stroke-opacity:1"
       id="rect852-6"
       width="0.74334335"
       height="0.38419995"
       x="2.7562168"
       y="294.13516"
       ry="0.17547084" />
    <rect
       style="fill:#525761;fill-opacity:1;stroke:none;stroke-width:0.24350788;stroke-miterlimit:4;stroke-dasharray:none;stroke-opacity:1"
       id="rect852-7"
       width="0.74334335"
       height="0.38419995"
       x="2.7520409"
       y="294.71985"
       ry="0.17547084" />
  </g>
</svg>
